{"title":"Formula 1 2011 Race 17 India BBC F1 Forum","uid":6783921,"size":520655682,"categoryP":"video","categoryS":"tv_shows","magnet":"?xt=urn:btih:c5e9d31e31eb72fc712dc76077d5d38fb01b8675&amp;dn=Formula+1+2011+Race+17+India+BBC+F1+Forum&amp;tr=udp%3A%2F%2Ftracker.openbittorrent.com%3A80&amp;tr=udp%3A%2F%2Fopen.demonii.com%3A1337&amp;tr=udp%3A%2F%2Ftracker.coppersurfer.tk%3A6969&amp;tr=udp%3A%2F%2Fexodus.desync.com%3A6969","seeders":1,"leechers":0,"uploader":"jorrell0733","files":3,"time":1320015621,"description":"[img]http://www.khaolaknews.com/wp-content/uploads/2011/03/f1.jpg[/img]\n\nFormula One 2011 Season\n\nBBc F1 Forum\nRace 17: Indian Grand Prix, \n\nRecord Source: BBC One Red Button Service\nOriginal Format: MPEG TS Stream\nDate: Sunday 30th Octt 2011\nTime: 11:00 to 11:45\n\n***PLEASE NOTE*** For those who are unfamiliar with the BBC F1 FOrum, This is the POST RACE Anaylsis of the Indian Grand Prix. DO NOT WATCH THIS UNTIL YOU KNOW THE RESULT OF THE RACE!!\n\nJake Humpfries ,Martin Brundle &amp; David Coulthard present POST RACE coverage of the BBC Red Button F1 Forum for the 17th Race meeting of the 2011 Formula One season, The Indian Grand Prix\n\nComplete File Name\t\t : F1 2011 Race 17 India BBC F1 Forum.mkv\nFormat                           : Matroska\nFormat version                   : Version 2\nFile size                        : 497 MiB\nDuration                         : 42mn 21s\nOverall bit rate                 : 1 639 Kbps\nWriting application              : HandBrake 0.9.5\nWriting library                  : libmkv 0.6.4.1\n\nVideo\nID                               : 1\nFormat                           : AVC\nFormat/Info                      : Advanced Video Codec\nFormat profile                   : &lt;a class=&quot;__cf_email__&quot; href=&quot;/cdn-cgi/l/email-protection&quot; data-cfemail=&quot;eca18d8582aca0dfc2dc&quot;&gt;[email&amp;#160;protected]&lt;/a&gt;&lt;script cf-hash='f9e31' type=&quot;text/javascript&quot;&gt;\n/* &lt;![CDATA[ */!function(){try{var t=&quot;currentScript&quot;in document?document.currentScript:function(){for(var t=document.getElementsByTagName(&quot;script&quot;),e=t.length;e--;)if(t[e].getAttribute(&quot;cf-hash&quot;))return t[e]}();if(t&amp;&amp;t.previousSibling){var e,r,n,i,c=t.previousSibling,a=c.getAttribute(&quot;data-cfemail&quot;);if(a){for(e=&quot;&quot;,r=parseInt(a.substr(0,2),16),n=2;a.length-n;n+=2)i=parseInt(a.substr(n,2),16)^r,e+=String.fromCharCode(i);e=document.createTextNode(e),c.parentNode.replaceChild(e,c)}}}catch(u){}}();/* ]]&gt; */&lt;/script&gt;\nFormat settings, CABAC           : Yes\nFormat settings, ReFrames        : 4 frames\nCodec ID                         : V_MPEG4/ISO/AVC\nDuration                         : 42mn 21s\nBit rate                         : 1 500 Kbps\nWidth                            : 544 pixels\nHeight                           : 576 pixels\nDisplay aspect ratio             : 16:9\nFrame rate mode                  : Variable\nFrame rate                       : 25.000 fps\nColor space                      : YUV\nChroma subsampling               : 4:2:0\nBit depth                        : 8 bits\nScan type                        : Progressive\nBits/(Pixel*Frame)               : 0.191\nStream size                      : 448 MiB (90%)\nWriting library                  : x264 core 112\nLanguage                         : English\nColor primaries                  : BT.601-6 525, BT.1358 525, BT.1700 NTSC, SMPTE 170M\nTransfer characteristics         : BT.709-5, BT.1361\nMatrix coefficients              : BT.601-6 525, BT.1358 525, BT.1700 NTSC, SMPTE 170M\n\nAudio\nID                               : 2\nFormat                           : AC-3\nFormat/Info                      : Audio Coding 3\nMode extension                   : CM (complete main)\nCodec ID                         : A_AC3\nDuration                         : 42mn 21s\nBit rate mode                    : Constant\nBit rate                         : 128 Kbps\nChannel(s)                       : 2 channels\nChannel positions                : Front: L R\nSampling rate                    : 48.0 KHz\nBit depth                        : 16 bits\nCompression mode                 : Lossy\nStream size                      : 38.8 MiB (8%)\nLanguage                         : English\n\n\n\n\n\n\n\nEnjoy, The Blacknight","torrent":{"xt":"urn:btih:c5e9d31e31eb72fc712dc76077d5d38fb01b8675","amp;dn":"Formula+1+2011+Race+17+India+BBC+F1+Forum","amp;tr":["udp%3A%2F%2Ftracker.openbittorrent.com%3A80","udp%3A%2F%2Fopen.demonii.com%3A1337","udp%3A%2F%2Ftracker.coppersurfer.tk%3A6969","udp%3A%2F%2Fexodus.desync.com%3A6969"],"infoHash":"c5e9d31e31eb72fc712dc76077d5d38fb01b8675","infoHashBuffer":{"type":"Buffer","data":[197,233,211,30,49,235,114,252,113,45,199,96,119,213,211,143,176,27,134,117]},"announce":[],"urlList":[]}}